<svg xmlns="http://www.w3.org/2000/svg" xmlns:svg="http://www.w3.org/2000/svg" id="svg6" version="1.1" viewBox="0 -240 1200 1200"><metadata id="metadata12"/><g id="layer2"><path style="display:inline;fill:currentColor" id="path4484-4-6-6-6" d="M 0 120 L 0 408 C 0 420.6666 4.4999997 431.5 13.5 440.5 C 22.5 449.5 33.3334 454 46 454 C 58.6667 454 69.5 449.5 78.5 440.5 C 79.3025 439.6974 80.056109 438.87477 80.787109 438.04297 L 80.787109 206.86523 L 309.05859 206.86523 C 313.71949 204.54893 318.0363 201.2686 322 197 C 330.6666 187.6666 335 176.6666 335 164 C 335 152 330.6666 141.6667 322 133 C 313.3333 124.3333 303 120 291 120 L 0 120 z M 945.54688 120 L 944.5293 301.16992 L 944.5293 396.84375 L 953.68945 442.64648 L 933.8418 396.33594 L 850.89062 299.13477 L 800 393.79102 L 999.49023 605.49609 L 1200 393.79102 L 1149.1094 299.13477 L 1066.666 396.84375 L 1045.293 442.64648 L 1054.4531 396.84375 L 1054.4531 301.16992 L 1054.9609 120.50977 L 945.54688 120 z M 158.19336 592 L 158.19336 848 L 612.14648 848 L 612.14648 592 L 158.19336 592 z M 1000.5098 834.50391 L 800 1046.209 L 850.89062 1140.8652 L 933.33398 1043.1562 L 954.70703 997.35352 L 945.54688 1043.1562 L 945.54688 1138.8301 L 945.03906 1319.4902 L 1054.4531 1320 L 1055.4707 1138.8301 L 1055.4707 1043.1562 L 1046.3105 997.35352 L 1066.1582 1043.6641 L 1149.1094 1140.8652 L 1200 1046.209 L 1000.5098 834.50391 z M 46 986 C 33.3334 986 22.5 990.5 13.5 999.5 C 4.4999997 1008.5 -3.5527137e-015 1019.6666 0 1033 L 0 1320 L 291 1320 C 303 1320 313.3333 1315.8333 322 1307.5 C 330.6666 1299.1668 335 1288.3334 335 1275 C 335 1263 330.6666 1252.5 322 1243.5 C 317.9628 1239.3076 313.55923 1236.1047 308.79883 1233.8652 L 80.787109 1233.8652 L 80.787109 1001.9648 C 80.056209 1001.128 79.3023 1000.3023 78.5 999.5 C 69.5 990.5 58.6667 986 46 986 z" transform="translate(0,-240)"/></g></svg>