<svg xmlns="http://www.w3.org/2000/svg" xmlns:svg="http://www.w3.org/2000/svg" id="svg6" version="1.1" viewBox="0 -240 1200 1200"><metadata id="metadata12"/><g id="layer2"><path style="fill:currentColor;stroke-width:1.02389073" id="path4483-6-7-2" d="M 0 120 L 0 233.13281 L 59.919922 233.13281 L 64.837891 174.55273 L 178.86523 174.55273 L 178.86523 577.89258 L 120.73438 588.17773 L 120.73438 632 L 305.41211 632 L 305.41211 588.17773 L 248.17383 577.89258 L 248.17383 174.55273 L 361.75391 174.55273 L 367.11914 233.13281 L 426.14453 233.13281 L 426.14453 120 L 0 120 z M 540.70508 120 L 540.70508 236.66797 L 1200 236.66797 L 1200 120 L 540.70508 120 z M 540.70508 353.33594 L 540.70508 470.00391 L 1020.2031 470.00391 L 1020.2031 353.33594 L 540.70508 353.33594 z M 943.00391 657.54102 L 711.60352 838.77148 L 794.54102 1032.2871 L 559.04297 838.77148 L 78.386719 1064.9629 L 0 1103.3613 L 0 1320 L 1200 1320 L 1200 821.04688 L 1125.8184 770.10938 L 943.00391 657.54102 z" transform="translate(0,-240)"/></g></svg>